<svg version="1.1" id="Layer_1" xmlns="http://www.w3.org/2000/svg" xmlns:xlink="http://www.w3.org/1999/xlink" x="0px" y="0px"
	 width="100%" viewBox="0 0 512 512" enable-background="new 0 0 512 512" xml:space="preserve">
<path fill="#010101" opacity="1.000000" stroke="none" 
	d="
M1.000000,198.000000 
	C1.000000,132.000000 1.000000,66.500000 1.000000,1.000000 
	C171.666672,1.000000 342.333344,1.000000 513.000000,1.000000 
	C513.000000,171.666672 513.000000,342.333344 513.000000,513.000000 
	C342.333344,513.000000 171.666672,513.000000 1.000000,513.000000 
	C1.000000,408.166656 1.000000,303.333344 1.000000,198.000000 
M377.608734,362.846405 
	C377.447784,362.789703 377.286835,362.732971 376.796204,362.111450 
	C350.866455,342.072144 324.914551,322.061371 299.013306,301.985321 
	C274.035370,282.624939 264.380829,250.130844 274.741302,220.591629 
	C285.112518,191.021713 312.835236,171.736145 344.401703,171.977982 
	C355.937073,172.066345 366.627167,175.354050 377.577118,180.355576 
	C380.707397,181.843964 383.935425,183.160172 386.941650,184.867020 
	C390.241333,186.740479 393.139404,186.643997 396.601227,184.964920 
	C408.506622,179.190491 408.567749,179.316498 407.992676,165.247833 
	C407.614105,164.468979 407.351257,163.101639 406.839325,163.000961 
	C400.718140,161.797241 399.665405,157.611130 399.733215,152.205200 
	C399.906708,138.375732 399.831665,124.542473 399.781250,110.711006 
	C399.696686,87.518524 384.419556,72.358604 361.138519,72.320747 
	C348.140137,72.299614 335.141510,72.277893 322.143341,72.333565 
	C317.517487,72.353371 314.015472,71.086143 312.780884,66.012009 
	C312.586243,65.212006 310.958771,64.760628 309.078827,63.991322 
	C305.466125,63.991322 301.853424,63.991322 299.336304,63.991322 
	C297.614258,74.661789 295.994141,84.700645 293.952087,95.220879 
	C287.737915,105.303467 278.581787,109.821053 266.875061,109.768555 
	C249.951157,109.692657 233.026611,109.766739 216.102402,109.739189 
	C209.517120,109.728470 207.643753,108.258080 206.119217,101.295525 
	C207.225922,96.426315 210.396988,94.679947 215.230652,94.711159 
	C232.551926,94.822990 249.874924,94.836678 267.196167,94.722137 
	C277.314972,94.655228 282.530243,89.330765 282.703796,79.237961 
	C282.783966,74.575729 282.489990,69.897705 282.760468,65.249825 
	C283.589630,51.000797 280.485168,42.828266 261.676880,43.805122 
	C249.831726,44.420326 247.079926,41.177994 247.016083,29.174910 
	C246.981400,22.654366 245.962982,21.573195 239.507736,21.565159 
	C219.687393,21.540483 199.867020,21.555759 180.046646,21.555586 
	C169.112732,21.555490 169.112717,21.555563 168.782440,32.373367 
	C168.547897,40.056007 164.671631,43.815243 156.842377,43.913910 
	C154.011337,43.949585 151.179337,43.900738 148.348053,43.924564 
	C138.336105,44.008823 133.114670,49.293552 133.055725,59.444424 
	C133.018967,65.773399 133.032837,72.102814 133.051605,78.431953 
	C133.084274,89.447960 138.220093,94.672653 149.210495,94.740410 
	C159.536697,94.804070 169.864624,94.841927 180.189713,94.717621 
	C185.353302,94.655464 188.362152,96.883102 189.033554,102.727356 
	C188.233658,108.072426 184.675446,109.762283 179.788223,109.753876 
	C170.130524,109.737267 160.463364,109.479347 150.817383,109.815941 
	C138.084518,110.260239 128.191345,105.600334 121.135010,94.070137 
	C119.640465,84.125839 118.145927,74.181534 116.638931,64.154388 
	C113.560333,64.154388 109.779892,64.154388 105.220016,64.021523 
	C104.502243,64.269218 103.196449,64.441223 103.153389,64.775780 
	C102.261650,71.703476 97.466629,72.420868 91.820305,72.359871 
	C79.489677,72.226654 67.156616,72.305969 54.824577,72.321510 
	C31.194832,72.351295 16.018827,87.442879 16.016420,110.978851 
	C16.004732,225.300369 16.004246,339.621887 16.017023,453.943390 
	C16.019632,477.291107 31.058670,492.435272 54.397778,492.443329 
	C156.720520,492.478638 259.043274,492.467102 361.365997,492.419403 
	C364.842834,492.417786 368.416718,492.264130 371.779724,491.475250 
	C388.981873,487.440063 399.722656,473.156433 399.778473,454.403473 
	C399.841461,433.239166 399.859985,412.074188 399.746094,390.910339 
	C399.719879,386.035828 400.955627,382.480316 406.124512,381.019135 
	C406.930359,380.791321 407.295166,379.003235 408.013245,377.029419 
	C408.013245,372.059692 408.013245,367.089966 408.013245,361.607483 
	C393.204376,371.371735 390.214905,371.482635 377.608734,362.846405 
M366.522003,191.920074 
	C344.051941,182.800079 323.090118,185.780365 305.042847,201.722382 
	C287.224915,217.461823 282.257324,237.758377 287.996399,260.776917 
	C289.054047,265.019012 290.688812,267.204834 295.731934,266.833649 
	C303.520874,266.260345 311.409454,266.293671 319.204559,266.823639 
	C324.138611,267.159088 325.744415,265.215149 326.861420,260.841614 
	C330.357635,247.151932 334.217255,233.553772 338.039490,219.949219 
	C339.761353,213.820572 345.349213,211.231476 349.733978,214.671997 
	C351.420471,215.995316 352.604065,218.304352 353.371582,220.400497 
	C360.687317,240.380295 367.859680,260.412567 375.089844,280.423737 
	C375.694031,282.096008 376.419342,283.724579 377.353699,286.027435 
	C384.936218,265.611786 392.256897,245.997192 399.488464,226.349792 
	C400.940796,222.403976 403.042236,219.558029 407.711670,219.825851 
	C412.156189,220.080734 413.870148,223.118484 415.003845,226.875702 
	C418.269196,237.697495 421.738861,248.459839 424.835052,259.329041 
	C425.693329,262.342010 427.088379,263.082611 430.035767,263.065216 
	C450.695801,262.943115 471.356934,263.003693 492.017700,262.988708 
	C492.968597,262.988007 493.919373,262.823029 495.070312,262.715912 
	C501.502258,240.144470 497.402924,219.996552 480.696625,203.698593 
	C463.440765,186.864548 442.636566,182.711212 419.821259,190.922562 
	C413.119080,193.334671 406.747589,196.692093 400.296509,199.767197 
	C394.655823,202.455948 389.141327,202.587387 383.494873,199.817017 
	C378.121521,197.180634 372.667023,194.709625 366.522003,191.920074 
M330.320099,307.174377 
	C349.686951,322.129425 369.094482,337.032471 388.372711,352.100891 
	C390.980103,354.138947 392.745514,354.154907 395.286652,352.134735 
	C404.015045,345.196045 412.911438,338.468811 421.730072,331.643280 
	C428.143372,326.679474 429.223602,326.612396 436.212585,330.890839 
	C440.446655,327.534027 444.658844,324.194550 448.767181,320.937408 
	C446.301666,313.920044 446.780365,312.331757 452.469910,307.895782 
	C460.870911,301.345703 469.380646,294.928711 477.624786,288.186920 
	C480.964844,285.455536 483.727997,282.018646 487.598297,278.032990 
	C465.210327,278.032990 444.406311,278.039459 423.602295,278.029541 
	C416.074188,278.025970 414.518555,276.855194 412.269836,269.554108 
	C410.443085,263.623138 408.644043,257.683624 406.567780,250.879761 
	C405.776886,252.863419 405.331055,253.920395 404.931000,254.994400 
	C398.377655,272.587372 391.764709,290.158630 385.329254,307.794678 
	C383.807587,311.964630 382.043732,315.762054 376.991577,315.685913 
	C371.914337,315.609406 370.307465,311.645355 368.889038,307.507172 
	C365.980347,299.020996 362.859650,290.607239 359.804199,282.171631 
	C355.515167,270.330322 351.206085,258.496246 346.521332,245.601425 
	C343.762177,255.636642 341.325562,264.552826 338.856812,273.460144 
	C336.990326,280.194427 334.977203,281.719818 327.848602,281.748840 
	C319.855164,281.781403 311.861450,281.739471 303.868073,281.776550 
	C302.700928,281.781952 301.534943,282.045959 300.368439,282.190308 
	C300.219421,282.595642 300.070435,283.001007 299.921417,283.406342 
	C309.863159,291.189728 319.804871,298.973083 330.320099,307.174377 
z"/>
<path fill="#A3E3EC" opacity="1.000000" stroke="none" 
	d="
M407.863922,377.936646 
	C407.295166,379.003235 406.930359,380.791321 406.124512,381.019135 
	C400.955627,382.480316 399.719879,386.035828 399.746094,390.910339 
	C399.859985,412.074188 399.841461,433.239166 399.778473,454.403473 
	C399.722656,473.156433 388.981873,487.440063 371.779724,491.475250 
	C368.416718,492.264130 364.842834,492.417786 361.365997,492.419403 
	C259.043274,492.467102 156.720520,492.478638 54.397778,492.443329 
	C31.058670,492.435272 16.019632,477.291107 16.017023,453.943390 
	C16.004246,339.621887 16.004732,225.300369 16.016420,110.978851 
	C16.018827,87.442879 31.194832,72.351295 54.824577,72.321510 
	C67.156616,72.305969 79.489677,72.226654 91.820305,72.359871 
	C97.466629,72.420868 102.261650,71.703476 103.153389,64.775780 
	C103.196449,64.441223 104.502243,64.269218 105.601212,64.546631 
	C106.360306,74.940727 106.738197,84.809700 106.793259,94.783524 
	C106.020401,94.929108 105.570366,94.969841 105.029022,94.653831 
	C104.103722,89.630394 101.130974,87.386696 96.575829,87.368614 
	C81.603149,87.309151 66.620148,87.037292 51.660084,87.483322 
	C39.312740,87.851456 31.128199,96.861359 31.056261,109.242668 
	C30.972166,123.716415 31.010298,138.191101 31.048624,152.665237 
	C31.064774,158.764313 32.820332,160.792603 38.927330,162.592316 
	C38.923019,168.326050 38.933079,173.600967 38.582516,178.955734 
	C32.317860,180.703384 31.039894,182.451431 31.039385,189.103668 
	C31.032606,277.592072 31.026312,366.080505 31.043745,454.568909 
	C31.046532,468.713470 39.494812,477.390015 53.686771,477.398407 
	C156.506607,477.459198 259.326508,477.460663 362.146332,477.396545 
	C376.254425,477.387756 384.687592,468.668274 384.730408,454.453979 
	C384.793640,433.456940 384.764313,412.459503 384.738007,391.462280 
	C384.729706,384.829803 383.397064,383.107391 377.038330,380.677917 
	C377.111664,379.480499 377.181976,378.683502 377.602631,377.972656 
	C383.860046,380.784271 389.865784,382.870789 396.508240,381.030304 
	C400.288940,379.982819 404.078400,378.966827 407.863922,377.936646 
z"/>
<path fill="#F17B7B" opacity="1.000000" stroke="none" 
	d="
M366.885101,192.042999 
	C372.667023,194.709625 378.121521,197.180634 383.494873,199.817017 
	C389.141327,202.587387 394.655823,202.455948 400.296509,199.767197 
	C406.747589,196.692093 413.119080,193.334671 419.821259,190.922562 
	C442.636566,182.711212 463.440765,186.864548 480.696625,203.698593 
	C497.402924,219.996552 501.502258,240.144470 495.070312,262.715912 
	C493.919373,262.823029 492.968597,262.988007 492.017700,262.988708 
	C471.356934,263.003693 450.695801,262.943115 430.035767,263.065216 
	C427.088379,263.082611 425.693329,262.342010 424.835052,259.329041 
	C421.738861,248.459839 418.269196,237.697495 415.003845,226.875702 
	C413.870148,223.118484 412.156189,220.080734 407.711670,219.825851 
	C403.042236,219.558029 400.940796,222.403976 399.488464,226.349792 
	C392.256897,245.997192 384.936218,265.611786 377.353699,286.027435 
	C376.419342,283.724579 375.694031,282.096008 375.089844,280.423737 
	C367.859680,260.412567 360.687317,240.380295 353.371582,220.400497 
	C352.604065,218.304352 351.420471,215.995316 349.733978,214.671997 
	C345.349213,211.231476 339.761353,213.820572 338.039490,219.949219 
	C334.217255,233.553772 330.357635,247.151932 326.861420,260.841614 
	C325.744415,265.215149 324.138611,267.159088 319.204559,266.823639 
	C311.409454,266.293671 303.520874,266.260345 295.731934,266.833649 
	C290.688812,267.204834 289.054047,265.019012 287.996399,260.776917 
	C282.257324,237.758377 287.224915,217.461823 305.042847,201.722382 
	C323.090118,185.780365 344.051941,182.800079 366.885101,192.042999 
z"/>
<path fill="#F7F5F6" opacity="1.000000" stroke="none" 
	d="
M189.200012,101.991341 
	C188.362152,96.883102 185.353302,94.655464 180.189713,94.717621 
	C169.864624,94.841927 159.536697,94.804070 149.210495,94.740410 
	C138.220093,94.672653 133.084274,89.447960 133.051605,78.431953 
	C133.032837,72.102814 133.018967,65.773399 133.055725,59.444424 
	C133.114670,49.293552 138.336105,44.008823 148.348053,43.924564 
	C151.179337,43.900738 154.011337,43.949585 156.842377,43.913910 
	C164.671631,43.815243 168.547897,40.056007 168.782440,32.373367 
	C169.112717,21.555563 169.112732,21.555490 180.046646,21.555586 
	C199.867020,21.555759 219.687393,21.540483 239.507736,21.565159 
	C245.962982,21.573195 246.981400,22.654366 247.016083,29.174910 
	C247.079926,41.177994 249.831726,44.420326 261.676880,43.805122 
	C280.485168,42.828266 283.589630,51.000797 282.760468,65.249825 
	C282.489990,69.897705 282.783966,74.575729 282.703796,79.237961 
	C282.530243,89.330765 277.314972,94.655228 267.196167,94.722137 
	C249.874924,94.836678 232.551926,94.822990 215.230652,94.711159 
	C210.396988,94.679947 207.225922,96.426315 205.549408,101.647812 
	C199.719742,101.997177 194.459885,101.994255 189.200012,101.991341 
M177.166473,59.173676 
	C176.048386,65.677208 178.400543,69.657677 184.152802,69.735863 
	C199.981018,69.950996 215.815231,69.911430 231.644592,69.741318 
	C236.301376,69.691277 239.191971,66.327202 239.099289,62.053005 
	C239.006073,57.755325 236.089249,54.883602 231.248062,54.854679 
	C215.750656,54.762085 200.249161,54.662003 184.757782,54.980190 
	C182.348175,55.029690 179.983170,57.251240 177.166473,59.173676 
z"/>
<path fill="#F17B7B" opacity="1.000000" stroke="none" 
	d="
M330.033325,306.965424 
	C319.804871,298.973083 309.863159,291.189728 299.921417,283.406342 
	C300.070435,283.001007 300.219421,282.595642 300.368439,282.190308 
	C301.534943,282.045959 302.700928,281.781952 303.868073,281.776550 
	C311.861450,281.739471 319.855164,281.781403 327.848602,281.748840 
	C334.977203,281.719818 336.990326,280.194427 338.856812,273.460144 
	C341.325562,264.552826 343.762177,255.636642 346.521332,245.601425 
	C351.206085,258.496246 355.515167,270.330322 359.804199,282.171631 
	C362.859650,290.607239 365.980347,299.020996 368.889038,307.507172 
	C370.307465,311.645355 371.914337,315.609406 376.991577,315.685913 
	C382.043732,315.762054 383.807587,311.964630 385.329254,307.794678 
	C391.764709,290.158630 398.377655,272.587372 404.931000,254.994400 
	C405.331055,253.920395 405.776886,252.863419 406.567780,250.879761 
	C408.644043,257.683624 410.443085,263.623138 412.269836,269.554108 
	C414.518555,276.855194 416.074188,278.025970 423.602295,278.029541 
	C444.406311,278.039459 465.210327,278.032990 487.598297,278.032990 
	C483.727997,282.018646 480.964844,285.455536 477.624786,288.186920 
	C469.380646,294.928711 460.870911,301.345703 452.469910,307.895782 
	C446.780365,312.331757 446.301666,313.920044 448.767181,320.937408 
	C444.658844,324.194550 440.446655,327.534027 436.212585,330.890839 
	C429.223602,326.612396 428.143372,326.679474 421.730072,331.643280 
	C412.911438,338.468811 404.015045,345.196045 395.286652,352.134735 
	C392.745514,354.154907 390.980103,354.138947 388.372711,352.100891 
	C369.094482,337.032471 349.686951,322.129425 330.033325,306.965424 
z"/>
<path fill="#EDEBED" opacity="1.000000" stroke="none" 
	d="
M377.045532,179.900070 
	C366.627167,175.354050 355.937073,172.066345 344.401703,171.977982 
	C312.835236,171.736145 285.112518,191.021713 274.741302,220.591629 
	C264.380829,250.130844 274.035370,282.624939 299.013306,301.985321 
	C324.914551,322.061371 350.866455,342.072144 376.933105,362.745178 
	C377.102417,363.611450 377.134766,363.843933 377.149963,364.534302 
	C377.079529,368.994202 377.026306,372.996246 376.628052,376.958344 
	C375.831360,376.718262 375.317383,376.599182 374.937042,376.306427 
	C354.471039,360.552246 334.004456,344.798798 313.565826,329.009186 
	C304.395416,321.924713 294.920044,315.178253 286.229340,307.542786 
	C273.030609,295.946625 264.621857,281.237976 260.463470,264.108429 
	C260.095306,262.591858 258.729553,261.317474 257.962830,259.584412 
	C261.377960,255.135010 260.247162,251.464127 257.283752,247.708496 
	C258.195648,241.333939 258.296234,235.142654 259.536652,229.188843 
	C264.819519,203.831741 278.210968,184.102127 300.736877,170.764526 
	C313.969330,162.929581 328.520569,158.977264 343.483612,159.417313 
	C354.692810,159.746933 365.796295,163.670639 377.010803,166.283997 
	C377.127533,166.764633 377.180328,166.955368 377.187256,167.593323 
	C377.109406,171.993729 377.077454,175.946899 377.045532,179.900070 
z"/>
<path fill="#EEECEE" opacity="1.000000" stroke="none" 
	d="
M189.116791,102.359344 
	C194.459885,101.994255 199.719742,101.997177 205.440506,101.997879 
	C207.643753,108.258080 209.517120,109.728470 216.102402,109.739189 
	C233.026611,109.766739 249.951157,109.692657 266.875061,109.768555 
	C278.581787,109.821053 287.737915,105.303467 294.664246,95.044800 
	C299.254639,94.948204 303.132874,95.027679 307.000031,95.473297 
	C302.593170,110.506424 286.724365,121.979935 270.672546,121.989899 
	C229.751419,122.015289 188.829742,121.891045 147.909561,122.089836 
	C139.806046,122.129204 132.395493,120.397133 125.621002,116.230110 
	C117.557358,111.270111 110.865906,105.042892 109.447052,95.062614 
	C113.702820,94.938553 117.496033,94.874428 121.289246,94.810303 
	C128.191345,105.600334 138.084518,110.260239 150.817383,109.815941 
	C160.463364,109.479347 170.130524,109.737267 179.788223,109.753876 
	C184.675446,109.762283 188.233658,108.072426 189.116791,102.359344 
z"/>
<path fill="#A3E3EB" opacity="1.000000" stroke="none" 
	d="
M377.233124,167.146103 
	C377.180328,166.955368 377.127533,166.764633 377.042023,165.937378 
	C377.007385,164.604843 377.005463,163.908829 377.369507,163.128891 
	C383.078125,162.244675 384.750397,158.662643 384.749481,153.803207 
	C384.746735,139.011230 384.868866,124.217972 384.711426,109.427666 
	C384.571381,96.275764 375.953918,87.567566 362.780060,87.375130 
	C348.489746,87.166389 334.193665,87.266510 319.900848,87.354637 
	C314.053894,87.390678 312.069458,89.198364 310.361389,95.025391 
	C309.310089,94.964958 308.610138,94.892899 307.992371,94.438812 
	C308.714325,84.087212 309.354065,74.117638 309.993774,64.148056 
	C310.958771,64.760628 312.586243,65.212006 312.780884,66.012009 
	C314.015472,71.086143 317.517487,72.353371 322.143341,72.333565 
	C335.141510,72.277893 348.140137,72.299614 361.138519,72.320747 
	C384.419556,72.358604 399.696686,87.518524 399.781250,110.711006 
	C399.831665,124.542473 399.906708,138.375732 399.733215,152.205200 
	C399.665405,157.611130 400.718140,161.797241 406.839325,163.000961 
	C407.351257,163.101639 407.614105,164.468979 407.576782,165.689941 
	C404.484650,167.398712 401.703369,168.485107 399.154999,169.970993 
	C394.401550,172.742584 389.907227,173.449738 384.983795,170.127243 
	C382.747894,168.618378 379.837524,168.108932 377.233124,167.146103 
z"/>
<path fill="#6BD7E5" opacity="1.000000" stroke="none" 
	d="
M377.187256,167.593323 
	C379.837524,168.108932 382.747894,168.618378 384.983795,170.127243 
	C389.907227,173.449738 394.401550,172.742584 399.154999,169.970993 
	C401.703369,168.485107 404.484650,167.398712 407.508911,166.082794 
	C408.567749,179.316498 408.506622,179.190491 396.601227,184.964920 
	C393.139404,186.643997 390.241333,186.740479 386.941650,184.867020 
	C383.935425,183.160172 380.707397,181.843964 377.311310,180.127823 
	C377.077454,175.946899 377.109406,171.993729 377.187256,167.593323 
z"/>
<path fill="#6BD7E5" opacity="1.000000" stroke="none" 
	d="
M376.973083,376.998291 
	C377.026306,372.996246 377.079529,368.994202 377.305298,364.423706 
	C377.654297,363.668121 377.806824,363.463257 377.935394,363.240601 
	C390.214905,371.482635 393.204376,371.371735 408.013245,361.607483 
	C408.013245,367.089966 408.013245,372.059692 407.938599,377.483032 
	C404.078400,378.966827 400.288940,379.982819 396.508240,381.030304 
	C389.865784,382.870789 383.860046,380.784271 377.530670,377.751282 
	C377.108368,377.443695 376.973083,376.998291 376.973083,376.998291 
z"/>
<path fill="#6CD8E6" opacity="1.000000" stroke="none" 
	d="
M309.536316,64.069687 
	C309.354065,74.117638 308.714325,84.087212 307.767761,94.510796 
	C307.460968,94.964798 307.011139,95.107162 307.011139,95.107162 
	C303.132874,95.027679 299.254639,94.948204 294.875183,94.804115 
	C295.994141,84.700645 297.614258,74.661789 299.336304,63.991322 
	C301.853424,63.991322 305.466125,63.991322 309.536316,64.069687 
z"/>
<path fill="#6CD9E7" opacity="1.000000" stroke="none" 
	d="
M121.212128,94.440216 
	C117.496033,94.874428 113.702820,94.938553 109.135925,94.987709 
	C107.946854,94.874718 107.531471,94.776695 107.116089,94.678680 
	C106.738197,84.809700 106.360306,74.940727 105.990929,64.613068 
	C109.779892,64.154388 113.560333,64.154388 116.638931,64.154388 
	C118.145927,74.181534 119.640465,84.125839 121.212128,94.440216 
z"/>
<path fill="#A3E3EC" opacity="1.000000" stroke="none" 
	d="
M377.772064,363.043518 
	C377.806824,363.463257 377.654297,363.668121 377.322510,363.965820 
	C377.134766,363.843933 377.102417,363.611450 377.097961,363.027588 
	C377.286835,362.732971 377.447784,362.789703 377.772064,363.043518 
z"/>
<path fill="#F7F5F6" opacity="1.000000" stroke="none" 
	d="
M106.793259,94.783524 
	C107.531471,94.776695 107.946854,94.874718 108.673370,95.047646 
	C110.865906,105.042892 117.557358,111.270111 125.621002,116.230110 
	C132.395493,120.397133 139.806046,122.129204 147.909561,122.089836 
	C188.829742,121.891045 229.751419,122.015289 270.672546,121.989899 
	C286.724365,121.979935 302.593170,110.506424 307.000031,95.473297 
	C307.011139,95.107162 307.460968,94.964798 307.685577,94.892815 
	C308.610138,94.892899 309.310089,94.964958 310.458252,95.392197 
	C311.796997,101.176514 315.569061,102.475174 320.368286,102.463165 
	C333.856598,102.429420 347.345123,102.434807 360.833496,102.460899 
	C367.990570,102.474747 369.669739,104.147285 369.683380,111.289162 
	C369.710388,125.443619 369.770233,139.598816 369.653778,153.752350 
	C369.610474,159.015533 371.541504,162.397156 377.003540,163.212830 
	C377.005463,163.908829 377.007385,164.604843 376.978088,165.647476 
	C365.796295,163.670639 354.692810,159.746933 343.483612,159.417313 
	C328.520569,158.977264 313.969330,162.929581 300.736877,170.764526 
	C278.210968,184.102127 264.819519,203.831741 259.536652,229.188843 
	C258.296234,235.142654 258.195648,241.333939 256.875244,247.606445 
	C249.409378,247.487656 242.640137,246.944107 235.868454,246.911713 
	C212.710342,246.800873 189.551331,246.842529 166.392776,246.887024 
	C159.770889,246.899734 155.886810,251.782471 158.208282,257.171753 
	C159.894547,261.086456 163.326904,261.918396 167.286072,261.910278 
	C194.943024,261.853668 222.600388,261.930664 250.256805,261.795288 
	C252.783234,261.782928 255.303833,260.580414 257.827148,259.930573 
	C258.729553,261.317474 260.095306,262.591858 260.463470,264.108429 
	C264.621857,281.237976 273.030609,295.946625 286.229340,307.542786 
	C294.920044,315.178253 304.395416,321.924713 313.565826,329.009186 
	C334.004456,344.798798 354.471039,360.552246 374.937042,376.306427 
	C375.317383,376.599182 375.831360,376.718262 376.628052,376.958344 
	C376.973083,376.998291 377.108368,377.443695 377.180328,377.665100 
	C377.181976,378.683502 377.111664,379.480499 376.699524,380.806580 
	C371.205383,382.459167 369.625916,385.901978 369.651276,390.858978 
	C369.756927,411.513367 369.701263,432.168610 369.692291,452.823517 
	C369.688751,460.967682 368.313538,462.323059 360.076141,462.323273 
	C258.633881,462.325989 157.191605,462.325989 55.749332,462.323273 
	C47.266495,462.323059 46.062687,461.086487 46.062557,452.427582 
	C46.061256,364.810791 46.062771,277.193970 46.059223,189.577179 
	C46.058929,182.324203 45.100521,180.905197 38.943134,178.875885 
	C38.933079,173.600967 38.923019,168.326050 39.290695,162.498505 
	C44.514622,160.749771 46.142727,157.481552 46.101719,152.715591 
	C45.983093,138.927704 46.051323,125.138145 46.065079,111.349258 
	C46.072243,104.172455 47.717842,102.471939 54.786610,102.456345 
	C68.409317,102.426285 82.032440,102.392990 95.654739,102.472359 
	C100.911064,102.502983 104.197334,100.330650 105.120331,95.010582 
	C105.570366,94.969841 106.020401,94.929108 106.793259,94.783524 
M77.799049,153.573547 
	C77.287643,155.824875 76.359543,158.071442 76.333870,160.328293 
	C76.189819,172.989639 76.112549,185.655807 76.311333,198.315643 
	C76.464531,208.072327 83.018684,214.255676 92.931343,214.329742 
	C103.927544,214.411926 114.925179,214.403702 125.921539,214.333115 
	C136.584167,214.264679 142.800888,207.921341 142.850647,197.089462 
	C142.904984,185.259827 142.909180,173.429474 142.848785,161.599899 
	C142.793121,150.695114 136.374908,144.382858 125.329987,144.331192 
	C114.833260,144.282074 104.335358,144.397858 93.839447,144.293182 
	C86.927185,144.224258 81.541298,146.705124 77.799049,153.573547 
M76.257767,287.479980 
	C76.257843,290.310089 76.232285,293.140503 76.262527,295.970276 
	C76.380692,307.026428 82.520706,313.236206 93.607246,313.325287 
	C104.427628,313.412231 115.250465,313.442963 126.070007,313.313263 
	C136.523346,313.187988 142.773560,306.853882 142.843002,296.415100 
	C142.922745,284.429199 142.912491,272.442078 142.845734,260.456024 
	C142.786316,249.787949 136.396210,243.342651 125.769974,243.258270 
	C115.116035,243.173645 104.460716,243.199600 93.806351,243.250519 
	C82.624420,243.303970 76.322456,249.700912 76.267105,261.014984 
	C76.225571,269.505188 76.258179,277.995728 76.257767,287.479980 
M133.126221,411.092590 
	C139.540680,408.158356 142.768250,403.061310 142.828079,396.110962 
	C142.937057,383.450165 143.001297,370.785492 142.806717,358.126709 
	C142.665558,348.944305 136.171432,342.408905 126.971161,342.234131 
	C115.313293,342.012634 103.644035,341.999054 91.987122,342.246368 
	C83.017159,342.436615 76.537605,348.816559 76.346069,357.796417 
	C76.069031,370.785339 76.063530,383.789276 76.348885,396.777863 
	C76.551193,405.986694 83.152534,412.114105 92.489944,412.220856 
	C103.817390,412.350433 115.147713,412.294006 126.476067,412.214600 
	C128.438690,412.200867 130.397720,411.674103 133.126221,411.092590 
M221.499847,408.683594 
	C258.467834,408.683533 295.435852,408.691345 332.403839,408.676117 
	C338.995422,408.673431 342.672119,405.934998 342.713470,401.128387 
	C342.754883,396.316864 339.151123,393.685272 332.468475,393.647644 
	C332.135437,393.645752 331.802399,393.647034 331.469360,393.647034 
	C277.183014,393.646973 222.896652,393.645325 168.610291,393.654541 
	C166.948273,393.654846 165.251923,393.576996 163.631348,393.868256 
	C160.101974,394.502533 158.063202,396.742798 157.749664,400.317505 
	C157.420731,404.067780 158.971756,406.900238 162.637039,408.035339 
	C164.495026,408.610718 166.568237,408.652954 168.544846,408.657990 
	C185.863083,408.702179 203.181473,408.683594 221.499847,408.683594 
M208.499680,360.463104 
	C239.646713,360.462952 270.793762,360.486633 301.940735,360.441315 
	C307.738922,360.432892 311.104340,357.440613 310.975250,352.773865 
	C310.851776,348.308533 307.599182,345.623688 302.052887,345.419067 
	C301.387543,345.394501 300.720520,345.412811 300.054291,345.412811 
	C256.248535,345.412476 212.442795,345.409271 168.637039,345.423920 
	C166.978226,345.424469 165.281418,345.406433 163.668015,345.727386 
	C159.287979,346.598755 156.890778,350.299377 157.880798,354.644196 
	C158.923767,359.221436 162.295883,360.477020 166.525482,360.470093 
	C180.183502,360.447723 193.841599,360.462585 208.499680,360.463104 
M271.023529,298.703705 
	C268.490143,297.444977 265.964966,295.110138 263.422089,295.090729 
	C230.972519,294.842560 198.520401,294.903229 166.069000,294.949097 
	C160.871506,294.956451 157.821945,297.740356 157.700546,302.169800 
	C157.574448,306.771118 160.787643,309.926178 166.089600,309.935181 
	C198.540970,309.990417 230.992554,309.999664 263.443878,309.930969 
	C270.047607,309.916992 272.769775,306.115570 271.023529,298.703705 
M221.499908,211.187271 
	C231.495117,211.184967 241.490784,211.126892 251.485306,211.207977 
	C255.445587,211.240112 258.330963,209.709839 259.669830,205.977432 
	C261.509369,200.849304 257.499542,196.180984 251.111298,196.149826 
	C234.119858,196.066986 217.127747,196.120148 200.135910,196.119751 
	C188.974594,196.119492 177.812958,196.068695 166.652115,196.141647 
	C160.905334,196.179214 157.590836,199.160019 157.697876,203.901611 
	C157.802353,208.529037 160.853775,211.150314 166.525848,211.166733 
	C184.517059,211.218842 202.508514,211.186798 221.499908,211.187271 
M203.500000,148.035568 
	C191.006088,148.036133 178.511688,147.973679 166.018478,148.067825 
	C160.922531,148.106232 157.782761,151.046143 157.690765,155.422180 
	C157.593079,160.070007 160.746094,162.999939 166.162186,163.056351 
	C173.657730,163.134430 181.154678,163.077209 188.651031,163.077087 
	C209.474228,163.076752 230.297470,163.100098 251.120590,163.059616 
	C256.801300,163.048569 260.196014,159.973679 259.990936,155.272110 
	C259.795807,150.798340 256.515564,148.072327 250.977310,148.054092 
	C235.485016,148.003067 219.992462,148.035858 203.500000,148.035568 
z"/>
<path fill="#040404" opacity="1.000000" stroke="none" 
	d="
M38.582516,178.955734 
	C45.100521,180.905197 46.058929,182.324203 46.059223,189.577179 
	C46.062771,277.193970 46.061256,364.810791 46.062557,452.427582 
	C46.062687,461.086487 47.266495,462.323059 55.749332,462.323273 
	C157.191605,462.325989 258.633881,462.325989 360.076141,462.323273 
	C368.313538,462.323059 369.688751,460.967682 369.692291,452.823517 
	C369.701263,432.168610 369.756927,411.513367 369.651276,390.858978 
	C369.625916,385.901978 371.205383,382.459167 376.696472,381.206970 
	C383.397064,383.107391 384.729706,384.829803 384.738007,391.462280 
	C384.764313,412.459503 384.793640,433.456940 384.730408,454.453979 
	C384.687592,468.668274 376.254425,477.387756 362.146332,477.396545 
	C259.326508,477.460663 156.506607,477.459198 53.686771,477.398407 
	C39.494812,477.390015 31.046532,468.713470 31.043745,454.568909 
	C31.026312,366.080505 31.032606,277.592072 31.039385,189.103668 
	C31.039894,182.451431 32.317860,180.703384 38.582516,178.955734 
z"/>
<path fill="#030404" opacity="1.000000" stroke="none" 
	d="
M105.029022,94.653831 
	C104.197334,100.330650 100.911064,102.502983 95.654739,102.472359 
	C82.032440,102.392990 68.409317,102.426285 54.786610,102.456345 
	C47.717842,102.471939 46.072243,104.172455 46.065079,111.349258 
	C46.051323,125.138145 45.983093,138.927704 46.101719,152.715591 
	C46.142727,157.481552 44.514622,160.749771 39.305061,162.039703 
	C32.820332,160.792603 31.064774,158.764313 31.048624,152.665237 
	C31.010298,138.191101 30.972166,123.716415 31.056261,109.242668 
	C31.128199,96.861359 39.312740,87.851456 51.660084,87.483322 
	C66.620148,87.037292 81.603149,87.309151 96.575829,87.368614 
	C101.130974,87.386696 104.103722,89.630394 105.029022,94.653831 
z"/>
<path fill="#050505" opacity="1.000000" stroke="none" 
	d="
M177.382004,58.821022 
	C179.983170,57.251240 182.348175,55.029690 184.757782,54.980190 
	C200.249161,54.662003 215.750656,54.762085 231.248062,54.854679 
	C236.089249,54.883602 239.006073,57.755325 239.099289,62.053005 
	C239.191971,66.327202 236.301376,69.691277 231.644592,69.741318 
	C215.815231,69.911430 199.981018,69.950996 184.152802,69.735863 
	C178.400543,69.657677 176.048386,65.677208 177.382004,58.821022 
z"/>
<path fill="#040404" opacity="1.000000" stroke="none" 
	d="
M257.962830,259.584412 
	C255.303833,260.580414 252.783234,261.782928 250.256805,261.795288 
	C222.600388,261.930664 194.943024,261.853668 167.286072,261.910278 
	C163.326904,261.918396 159.894547,261.086456 158.208282,257.171753 
	C155.886810,251.782471 159.770889,246.899734 166.392776,246.887024 
	C189.551331,246.842529 212.710342,246.800873 235.868454,246.911713 
	C242.640137,246.944107 249.409378,247.487656 256.588287,247.898987 
	C260.247162,251.464127 261.377960,255.135010 257.962830,259.584412 
z"/>
<path fill="#040606" opacity="1.000000" stroke="none" 
	d="
M377.369507,163.128891 
	C371.541504,162.397156 369.610474,159.015533 369.653778,153.752350 
	C369.770233,139.598816 369.710388,125.443619 369.683380,111.289162 
	C369.669739,104.147285 367.990570,102.474747 360.833496,102.460899 
	C347.345123,102.434807 333.856598,102.429420 320.368286,102.463165 
	C315.569061,102.475174 311.796997,101.176514 310.809570,95.380569 
	C312.069458,89.198364 314.053894,87.390678 319.900848,87.354637 
	C334.193665,87.266510 348.489746,87.166389 362.780060,87.375130 
	C375.953918,87.567566 384.571381,96.275764 384.711426,109.427666 
	C384.868866,124.217972 384.746735,139.011230 384.749481,153.803207 
	C384.750397,158.662643 383.078125,162.244675 377.369507,163.128891 
z"/>
<path fill="#050505" opacity="1.000000" stroke="none" 
	d="
M77.940292,153.216675 
	C81.541298,146.705124 86.927185,144.224258 93.839447,144.293182 
	C104.335358,144.397858 114.833260,144.282074 125.329987,144.331192 
	C136.374908,144.382858 142.793121,150.695114 142.848785,161.599899 
	C142.909180,173.429474 142.904984,185.259827 142.850647,197.089462 
	C142.800888,207.921341 136.584167,214.264679 125.921539,214.333115 
	C114.925179,214.403702 103.927544,214.411926 92.931343,214.329742 
	C83.018684,214.255676 76.464531,208.072327 76.311333,198.315643 
	C76.112549,185.655807 76.189819,172.989639 76.333870,160.328293 
	C76.359543,158.071442 77.287643,155.824875 77.940292,153.216675 
M125.036110,159.332291 
	C113.963348,159.332291 102.890579,159.332291 91.645721,159.332291 
	C91.645721,172.960587 91.645721,185.964996 91.645721,198.939789 
	C103.835518,198.939789 115.682968,198.939789 127.824066,198.939789 
	C127.824066,186.443237 127.866653,174.341843 127.743279,162.242142 
	C127.733406,161.273712 126.578827,160.316925 125.036110,159.332291 
z"/>
<path fill="#050505" opacity="1.000000" stroke="none" 
	d="
M76.257767,286.983032 
	C76.258179,277.995728 76.225571,269.505188 76.267105,261.014984 
	C76.322456,249.700912 82.624420,243.303970 93.806351,243.250519 
	C104.460716,243.199600 115.116035,243.173645 125.769974,243.258270 
	C136.396210,243.342651 142.786316,249.787949 142.845734,260.456024 
	C142.912491,272.442078 142.922745,284.429199 142.843002,296.415100 
	C142.773560,306.853882 136.523346,313.187988 126.070007,313.313263 
	C115.250465,313.442963 104.427628,313.412231 93.607246,313.325287 
	C82.520706,313.236206 76.380692,307.026428 76.262527,295.970276 
	C76.232285,293.140503 76.257843,290.310089 76.257767,286.983032 
M127.825813,276.501892 
	C127.825813,270.567993 127.825813,264.634094 127.825813,258.498779 
	C115.424248,258.498779 103.678307,258.498779 91.620331,258.498779 
	C91.620331,271.801788 91.620331,284.852264 91.620331,297.845642 
	C103.812370,297.845642 115.697411,297.845642 127.825813,297.845642 
	C127.825813,290.793976 127.825813,284.147461 127.825813,276.501892 
z"/>
<path fill="#050505" opacity="1.000000" stroke="none" 
	d="
M132.742310,411.238464 
	C130.397720,411.674103 128.438690,412.200867 126.476067,412.214600 
	C115.147713,412.294006 103.817390,412.350433 92.489944,412.220856 
	C83.152534,412.114105 76.551193,405.986694 76.348885,396.777863 
	C76.063530,383.789276 76.069031,370.785339 76.346069,357.796417 
	C76.537605,348.816559 83.017159,342.436615 91.987122,342.246368 
	C103.644035,341.999054 115.313293,342.012634 126.971161,342.234131 
	C136.171432,342.408905 142.665558,348.944305 142.806717,358.126709 
	C143.001297,370.785492 142.937057,383.450165 142.828079,396.110962 
	C142.768250,403.061310 139.540680,408.158356 132.742310,411.238464 
M91.306549,391.340332 
	C91.306549,393.130585 91.306549,394.920807 91.306549,396.868622 
	C103.691277,396.868622 115.577103,396.868622 127.566299,396.868622 
	C127.566299,383.637329 127.566299,370.724487 127.566299,357.608337 
	C115.439224,357.608337 103.574646,357.608337 91.306549,357.608337 
	C91.306549,368.769867 91.306549,379.572937 91.306549,391.340332 
z"/>
<path fill="#070707" opacity="1.000000" stroke="none" 
	d="
M220.999832,408.683594 
	C203.181473,408.683594 185.863083,408.702179 168.544846,408.657990 
	C166.568237,408.652954 164.495026,408.610718 162.637039,408.035339 
	C158.971756,406.900238 157.420731,404.067780 157.749664,400.317505 
	C158.063202,396.742798 160.101974,394.502533 163.631348,393.868256 
	C165.251923,393.576996 166.948273,393.654846 168.610291,393.654541 
	C222.896652,393.645325 277.183014,393.646973 331.469360,393.647034 
	C331.802399,393.647034 332.135437,393.645752 332.468475,393.647644 
	C339.151123,393.685272 342.754883,396.316864 342.713470,401.128387 
	C342.672119,405.934998 338.995422,408.673431 332.403839,408.676117 
	C295.435852,408.691345 258.467834,408.683533 220.999832,408.683594 
z"/>
<path fill="#080808" opacity="1.000000" stroke="none" 
	d="
M207.999664,360.463074 
	C193.841599,360.462585 180.183502,360.447723 166.525482,360.470093 
	C162.295883,360.477020 158.923767,359.221436 157.880798,354.644196 
	C156.890778,350.299377 159.287979,346.598755 163.668015,345.727386 
	C165.281418,345.406433 166.978226,345.424469 168.637039,345.423920 
	C212.442795,345.409271 256.248535,345.412476 300.054291,345.412811 
	C300.720520,345.412811 301.387543,345.394501 302.052887,345.419067 
	C307.599182,345.623688 310.851776,348.308533 310.975250,352.773865 
	C311.104340,357.440613 307.738922,360.432892 301.940735,360.441315 
	C270.793762,360.486633 239.646713,360.462952 207.999664,360.463074 
z"/>
<path fill="#020202" opacity="1.000000" stroke="none" 
	d="
M271.199829,299.062195 
	C272.769775,306.115570 270.047607,309.916992 263.443878,309.930969 
	C230.992554,309.999664 198.540970,309.990417 166.089600,309.935181 
	C160.787643,309.926178 157.574448,306.771118 157.700546,302.169800 
	C157.821945,297.740356 160.871506,294.956451 166.069000,294.949097 
	C198.520401,294.903229 230.972519,294.842560 263.422089,295.090729 
	C265.964966,295.110138 268.490143,297.444977 271.199829,299.062195 
z"/>
<path fill="#040404" opacity="1.000000" stroke="none" 
	d="
M220.999893,211.187286 
	C202.508514,211.186798 184.517059,211.218842 166.525848,211.166733 
	C160.853775,211.150314 157.802353,208.529037 157.697876,203.901611 
	C157.590836,199.160019 160.905334,196.179214 166.652115,196.141647 
	C177.812958,196.068695 188.974594,196.119492 200.135910,196.119751 
	C217.127747,196.120148 234.119858,196.066986 251.111298,196.149826 
	C257.499542,196.180984 261.509369,200.849304 259.669830,205.977432 
	C258.330963,209.709839 255.445587,211.240112 251.485306,211.207977 
	C241.490784,211.126892 231.495117,211.184967 220.999893,211.187286 
z"/>
<path fill="#020202" opacity="1.000000" stroke="none" 
	d="
M204.000000,148.035568 
	C219.992462,148.035858 235.485016,148.003067 250.977310,148.054092 
	C256.515564,148.072327 259.795807,150.798340 259.990936,155.272110 
	C260.196014,159.973679 256.801300,163.048569 251.120590,163.059616 
	C230.297470,163.100098 209.474228,163.076752 188.651031,163.077087 
	C181.154678,163.077209 173.657730,163.134430 166.162186,163.056351 
	C160.746094,162.999939 157.593079,160.070007 157.690765,155.422180 
	C157.782761,151.046143 160.922531,148.106232 166.018478,148.067825 
	C178.511688,147.973679 191.006088,148.036133 204.000000,148.035568 
z"/>
<path fill="#F2F0F1" opacity="1.000000" stroke="none" 
	d="
M125.496155,159.343506 
	C126.578827,160.316925 127.733406,161.273712 127.743279,162.242142 
	C127.866653,174.341843 127.824066,186.443237 127.824066,198.939789 
	C115.682968,198.939789 103.835518,198.939789 91.645721,198.939789 
	C91.645721,185.964996 91.645721,172.960587 91.645721,159.332291 
	C102.890579,159.332291 113.963348,159.332291 125.496155,159.343506 
z"/>
<path fill="#F3F1F2" opacity="1.000000" stroke="none" 
	d="
M127.825813,277.001404 
	C127.825813,284.147461 127.825813,290.793976 127.825813,297.845642 
	C115.697411,297.845642 103.812370,297.845642 91.620331,297.845642 
	C91.620331,284.852264 91.620331,271.801788 91.620331,258.498779 
	C103.678307,258.498779 115.424248,258.498779 127.825813,258.498779 
	C127.825813,264.634094 127.825813,270.567993 127.825813,277.001404 
z"/>
<path fill="#F3F1F2" opacity="1.000000" stroke="none" 
	d="
M91.306549,390.858154 
	C91.306549,379.572937 91.306549,368.769867 91.306549,357.608337 
	C103.574646,357.608337 115.439224,357.608337 127.566299,357.608337 
	C127.566299,370.724487 127.566299,383.637329 127.566299,396.868622 
	C115.577103,396.868622 103.691277,396.868622 91.306549,396.868622 
	C91.306549,394.920807 91.306549,393.130585 91.306549,390.858154 
z"/>
</svg>