<svg version="1.1" id="Layer_1" xmlns="http://www.w3.org/2000/svg" xmlns:xlink="http://www.w3.org/1999/xlink" x="0px" y="0px"
	 width="100%" viewBox="0 0 204 192" enable-background="new 0 0 204 192" xml:space="preserve">
<path fill="#020202" opacity="1.000000" stroke="none" 
	d="
M100.000000,193.000000 
	C66.666672,193.000000 33.833336,193.000000 1.000004,193.000000 
	C1.000003,129.000000 1.000003,65.000015 1.000001,1.000009 
	C67.666656,1.000000 134.333374,1.033557 200.999786,0.903419 
	C204.424393,0.896734 205.104294,1.575284 205.096848,5.000181 
	C204.963577,66.333221 204.963593,127.666702 205.096848,188.999741 
	C205.104294,192.424484 204.426483,193.116150 200.999557,193.099274 
	C167.500351,192.934479 134.000015,193.000000 100.000000,193.000000 
z"/>
<path fill="#D3D3D3" opacity="1.000000" stroke="none" 
	d="
M107.873543,85.060242 
	C106.884415,83.646446 105.228119,84.328011 103.943329,83.280365 
	C106.205132,82.381851 107.848862,83.487587 109.571716,83.975365 
	C110.616562,84.271187 110.952690,84.754761 110.176308,85.609863 
	C109.246017,86.634476 108.902191,85.188980 107.873543,85.060242 
z"/>
<path fill="#D0D0D0" opacity="1.000000" stroke="none" 
	d="
M62.117500,173.593781 
	C59.429913,172.805054 62.281784,170.595901 60.780758,169.305420 
	C62.388481,170.288437 62.100212,171.902893 62.117500,173.593781 
z"/>
<path fill="#AAAAAA" opacity="1.000000" stroke="none" 
	d="
M92.289330,148.203003 
	C91.218498,148.169647 90.419296,148.046173 89.454102,147.897049 
	C92.072639,146.558777 92.072639,146.558777 92.289330,148.203003 
z"/>
<path fill="#D8D8D8" opacity="1.000000" stroke="none" 
	d="
M119.155457,120.048218 
	C117.082161,119.802132 115.171326,119.252502 112.931656,118.608292 
	C115.141098,117.347374 116.646721,118.244141 118.547058,119.104233 
	C119.056839,119.367104 119.187378,119.555885 119.155457,120.048218 
z"/>
<path fill="#D0D0D0" opacity="1.000000" stroke="none" 
	d="
M178.180237,63.803093 
	C176.135605,64.623520 174.397293,63.005077 172.071884,62.796833 
	C174.514008,60.813942 176.068146,62.964520 178.133759,63.599464 
	C178.405243,63.875935 178.012070,63.905998 178.180237,63.803093 
z"/>
<path fill="#C1C1C1" opacity="1.000000" stroke="none" 
	d="
M47.017532,63.059265 
	C48.695087,61.743301 48.695087,61.743301 51.563633,63.769165 
	C50.010082,64.344856 48.755951,63.386608 47.017532,63.059265 
z"/>
<path fill="#DEDEDE" opacity="1.000000" stroke="none" 
	d="
M71.052658,62.638977 
	C68.901878,61.648548 70.375885,60.013035 70.124954,58.159634 
	C71.323486,59.662468 71.152695,61.076069 71.052658,62.638977 
z"/>
<path fill="#C9C9C9" opacity="1.000000" stroke="none" 
	d="
M69.831253,33.198784 
	C69.042068,32.898209 67.853127,32.700314 68.674873,32.253384 
	C70.568611,31.223413 72.283821,32.340733 73.820885,33.632092 
	C72.507858,34.538357 71.372986,33.690327 69.831253,33.198784 
z"/>
<path fill="#B0B0B0" opacity="1.000000" stroke="none" 
	d="
M70.759598,69.370682 
	C71.553322,68.542137 72.157387,67.975708 72.761444,67.409286 
	C72.996429,68.013344 73.577316,68.752167 73.403961,69.197128 
	C72.793343,70.764366 71.614891,70.055214 70.759598,69.370682 
z"/>
<path fill="#C9C9C9" opacity="1.000000" stroke="none" 
	d="
M115.084137,76.329803 
	C116.329468,77.550629 116.261444,78.716637 116.318115,80.299408 
	C114.268135,79.142227 114.240334,77.499901 114.095894,75.926682 
	C114.084610,75.803734 114.342346,75.535858 114.367889,75.548683 
	C114.583580,75.657028 114.774307,75.815048 115.084137,76.329803 
z"/>
<path fill="#AFAFAF" opacity="1.000000" stroke="none" 
	d="
M48.956799,104.429886 
	C50.409389,103.311058 51.555058,103.912323 51.856018,104.110107 
	C51.385376,103.411453 50.204739,108.078430 48.956799,104.429886 
z"/>
<path fill="#C7C7C7" opacity="1.000000" stroke="none" 
	d="
M84.950363,103.606293 
	C84.656311,102.681488 84.374451,102.107246 84.233559,101.500275 
	C84.215576,101.422813 85.042778,100.932571 85.291351,101.045464 
	C86.744888,101.705643 85.759720,103.004906 85.952896,104.011047 
	C85.981422,104.159622 85.969803,104.385391 85.878258,104.476860 
	C84.899620,105.454735 85.281487,104.156334 84.950363,103.606293 
z"/>
<path fill="#B8B8B8" opacity="1.000000" stroke="none" 
	d="
M84.074829,96.304123 
	C84.391388,97.051643 84.881599,97.728889 84.815498,97.788429 
	C83.795113,98.707413 83.309563,97.890945 83.256721,97.051102 
	C83.197983,96.117523 81.873177,94.781654 83.552383,94.296837 
	C84.245537,94.096718 83.852890,95.358894 84.074829,96.304123 
z"/>
<path fill="#C1C1C1" opacity="1.000000" stroke="none" 
	d="
M141.187729,52.644913 
	C141.736145,53.210972 143.020920,53.373699 142.246368,53.710541 
	C140.845978,54.319542 139.295395,53.666218 138.189362,52.338783 
	C139.181305,51.847092 140.077759,51.738125 141.187729,52.644913 
z"/>
<path fill="#D6D6D6" opacity="1.000000" stroke="none" 
	d="
M41.178284,89.129303 
	C42.451103,90.071312 42.345955,91.419563 41.781391,93.408157 
	C40.589703,91.826096 41.073578,90.588631 41.178284,89.129303 
z"/>
<path fill="#BBBBBB" opacity="1.000000" stroke="none" 
	d="
M139.664536,56.984436 
	C137.940674,59.347561 137.485001,56.318222 135.747986,56.780220 
	C137.398987,55.519691 138.542175,55.850567 139.664536,56.984436 
z"/>
<path fill="#BFBFBF" opacity="1.000000" stroke="none" 
	d="
M91.506371,152.521515 
	C90.257133,152.479202 89.250137,152.143692 87.349915,151.510590 
	C89.610931,150.906860 90.953285,149.973557 91.506371,152.521515 
z"/>
<path fill="#ADADAD" opacity="1.000000" stroke="none" 
	d="
M61.015598,139.052795 
	C62.358349,138.913330 63.576591,139.033569 65.161163,139.189957 
	C63.443642,141.035446 62.169369,140.053970 61.015598,139.052795 
z"/>
<path fill="#989898" opacity="1.000000" stroke="none" 
	d="
M119.251846,120.609772 
	C118.949287,120.158043 118.905571,119.964325 118.894073,119.474457 
	C119.897057,119.357681 121.390442,117.860176 121.776840,119.606758 
	C122.202621,121.531380 120.592827,120.992340 119.251846,120.609772 
z"/>
<path fill="#C5C5C5" opacity="1.000000" stroke="none" 
	d="
M125.021118,116.279335 
	C124.984474,116.786125 124.975815,116.953590 124.939774,117.114944 
	C124.904053,117.274918 124.840729,117.428734 124.789505,117.585251 
	C123.298279,116.920731 124.154701,115.160599 123.225441,114.233810 
	C123.537590,114.151649 123.864594,113.964088 124.159325,114.005615 
	C125.415298,114.182541 124.938271,115.200768 125.021118,116.279335 
z"/>
<path fill="#AAAAAA" opacity="1.000000" stroke="none" 
	d="
M42.540852,96.865456 
	C45.139740,96.735802 43.892891,98.454781 43.914879,100.013908 
	C42.390911,99.235115 43.200218,98.012756 42.540852,96.865456 
z"/>
<path fill="#C1C1C1" opacity="1.000000" stroke="none" 
	d="
M110.061089,78.414627 
	C110.021278,77.448425 109.911713,76.699524 110.217499,76.210190 
	C110.451881,75.835129 111.029793,76.156387 111.064949,76.715057 
	C111.116272,77.530464 111.890373,78.699448 110.061089,78.414627 
z"/>
<path fill="#C9C9C9" opacity="1.000000" stroke="none" 
	d="
M110.221901,73.519470 
	C110.581543,75.283630 109.531006,75.295723 109.178665,74.599983 
	C108.634651,73.525742 108.714493,72.157021 109.650375,70.774857 
	C109.840981,71.703415 109.987190,72.415695 110.221901,73.519470 
z"/>
<path fill="#AAAAAA" opacity="1.000000" stroke="none" 
	d="
M39.527229,66.136658 
	C39.037273,65.297401 38.326767,64.213211 39.892494,63.911133 
	C40.322609,63.828144 40.828075,64.135727 41.298965,64.264084 
	C40.810909,64.873077 40.322853,65.482071 39.527229,66.136658 
z"/>
<path fill="#B6B6B6" opacity="1.000000" stroke="none" 
	d="
M108.755722,79.819992 
	C107.690697,80.204430 106.790245,80.008644 105.790382,79.791245 
	C106.765343,78.448738 107.840126,78.825592 108.755722,79.819992 
z"/>
<path fill="#A7A7A7" opacity="1.000000" stroke="none" 
	d="
M135.423370,50.921711 
	C136.415482,50.997841 137.337616,51.380051 136.807068,51.868614 
	C135.896591,52.706993 134.726395,52.151646 133.780350,51.451931 
	C134.197678,51.279354 134.615005,51.106777 135.423370,50.921711 
z"/>
<path fill="#D0D0D0" opacity="1.000000" stroke="none" 
	d="
M113.195389,71.310379 
	C112.669769,70.395271 111.379440,69.815453 112.581024,69.109764 
	C113.539505,68.546844 114.069611,69.244301 113.937172,70.644348 
	C113.707024,71.198944 113.564323,71.404198 113.195389,71.310379 
z"/>
<path fill="#858585" opacity="1.000000" stroke="none" 
	d="
M32.033165,25.760178 
	C30.985182,25.927567 30.227102,25.903969 29.469025,25.880373 
	C29.526342,25.611849 29.516680,25.152870 29.651731,25.105371 
	C30.607271,24.769312 31.548309,24.757362 32.033165,25.760178 
z"/>
<path fill="#C9C9C9" opacity="1.000000" stroke="none" 
	d="
M112.955780,71.338730 
	C112.969170,71.011322 113.409378,70.998772 113.629555,70.996231 
	C113.750061,71.792145 113.650391,72.590607 113.550705,73.389069 
	C113.347939,72.814758 113.145164,72.240448 112.955780,71.338730 
z"/>
<path fill="#BFBFBF" opacity="1.000000" stroke="none" 
	d="
M118.289062,124.166809 
	C117.012695,124.001595 116.121773,123.898056 115.077751,123.776726 
	C115.970230,122.630768 116.922302,123.056602 118.094131,123.304153 
	C118.479073,123.746117 118.576790,123.987312 118.289062,124.166809 
z"/>
<path fill="#BFBFBF" opacity="1.000000" stroke="none" 
	d="
M118.262878,123.655731 
	C119.126724,123.855026 120.668640,123.639359 120.287521,124.874207 
	C119.860512,126.257797 118.850250,125.338486 118.012283,124.453705 
	C117.903618,124.105125 118.144394,123.806541 118.262878,123.655731 
z"/>
<path fill="#B6B6B6" opacity="1.000000" stroke="none" 
	d="
M108.964325,80.037399 
	C109.285759,80.171181 109.481674,80.424744 109.677589,80.678299 
	C109.436569,80.704842 109.195541,80.731384 108.772835,80.579071 
	C108.591148,80.400215 108.838799,80.157166 108.964325,80.037399 
z"/>
<path fill="#ADADAD" opacity="1.000000" stroke="none" 
	d="
M61.194664,138.693787 
	C61.005657,138.787308 60.809776,138.936050 60.590000,139.027145 
	C60.542263,139.046906 60.408848,138.859924 60.314892,138.768158 
	C60.472351,138.651260 60.629810,138.534363 60.963688,138.605286 
	C61.140106,138.793091 61.179214,138.728317 61.194664,138.693787 
z"/>
<path fill="#D0D0D0" opacity="1.000000" stroke="none" 
	d="
M178.359894,63.842072 
	C178.405243,63.875935 178.103653,63.814693 178.103653,63.814693 
	C178.103653,63.814693 178.356140,63.856895 178.352280,63.778542 
	C178.348419,63.700188 178.314529,63.808208 178.359894,63.842072 
z"/>
</svg>